{
.appVersion = "3343";
.formatVersion = 3;
DisplayStrings = (
"ADVENTUREX
2025 
ORBIX",
"AVCDEFGHIJKLMNOPQRSTUVWXYZabcdefghijklmnopqrstuvwxyz1234567890.,- ",
ADVENTUREX,
"ABCDEFGHIJKLMNOPQRSTUVWXYZabcdefghijklmnopqrstuvwxyz0123456789 .,-",
DESIGNX,
"",
"BARRY SHAWN",
"ADVENTUREX
2025",
WORKSHOP,
NEXUS,
ADVENTURE,
"",
AdventureX,
BarryShawn,
Design,
"The People who are crazy enough to think they can change the world are the ones who do. y

workshop",
Design,
"Design System",
"Barry Shawn
Ryan Zhu
Zhang Peng",
AdventureX,
"Designed by AdventureX Members",
AdventureX,
"/A.ss01 DVENTU/R.ss01 EXBCDEFGHIJKLMNOPQRSTR/R.ss01 UVWXYZ",
"",
"/E_X",
"/E_X/ADVENTUREX.liga",
ADVENTUREX,
AdventureX,
ADVENTUREX,
"BESIGN STUDIO",
"X ACADEMY",
"abcdefghijklmnopqrstuvwxyz

Designed by Barry Shawn in Shenzhen",
"",
XIAOMI,
"VT/A.ss01 CK",
a,
"‘’",
"“”",
"the quick brown fox jumps over the lazy god and ran away",
"SUPER! FAIR"
);
date = "2025-07-06 03:03:47 +0000";
familyName = Orbix;
featurePrefixes = (
{
automatic = 1;
code = "languagesystem DFLT dflt;
";
name = Languagesystems;
}
);
features = (
{
automatic = 1;
code = "feature ss01;
feature ss02;
";
tag = aalt;
},
{
code = "lookupflag IgnoreMarks;
sub A D V E N T U R E X by ADVENTUREX.liga;
";
tag = dlig;
},
{
automatic = 1;
code = "sub A by A.ss01;
sub D by D.ss01;
sub I by I.ss01;
sub M by M.ss01;
sub R by R.ss01;
sub W by W.ss01;
sub Z by Z.ss01;
sub slash by slash.ss01;
sub backslash by backslash.ss01;
";
labels = (
{
language = dflt;
value = "Stylish Set";
}
);
tag = ss01;
},
{
automatic = 1;
code = "sub X by X.ss02;
";
labels = (
{
language = dflt;
value = "X Symbol";
}
);
tag = ss02;
}
);
fontMaster = (
{
guides = (
{
locked = 1;
orientation = right;
pos = (141,700);
},
{
locked = 1;
orientation = right;
pos = (141,650);
},
{
locked = 1;
orientation = right;
pos = (141,600);
},
{
locked = 1;
orientation = right;
pos = (141,550);
},
{
locked = 1;
orientation = right;
pos = (141,500);
},
{
locked = 1;
orientation = right;

glyphs = (
{
glyphname = A;
kernLeft = NO;
kernRight = NO;
lastChange = "2025-07-05 09:03:00 +0000";
layers = (
{
annotations = (
{
pos = (337,-297);
text = "rc 192";
type = Text;
},
{
pos = (1792,240);
text = "rc 256";
type = Text;
}
);
layerId = m01;
shapes = (
{
attr = {
strokePos = 0;
};
closed = 1;
nodes = (
(750,400,l),
(750,595,o),
(645,700,o),
(450,700,c),
(350,700,l),
(155,700,o),
(50,595,o),
(50,400,c),
(50,45,l),
(50,8,o),
(63,-5,o),
(100,-5,c),
(138,-5,o),
(150,8,o),
(150,45,c),
(150,400,l),
(150,539,o),
(211,600,o),
(350,600,c),
(450,600,l),
(589,600,o),
(650,539,o),
(650,400,c),
(650,45,l),
(650,8,o),
(663,-5,o),
(700,-5,c),
(738,-5,o),
(750,8,o),
(750,45,c)
);
},
{
attr = {
strokePos = "1";
};
closed = 1;
nodes = (
(505,200,l),
(543,200,o),
(555,213,o),
(555,250,c),
(555,288,o),
(543,300,o),
(505,300,c),
(295,300,l),
(258,300,o),
(245,288,o),
(245,250,c),
(245,213,o),
(258,200,o),
(295,200,c)
);
}
);
width = 800;
}
);
unicode = 65;
},
{
glyphname = B;
kernRight = NO;
lastChange = "2025-07-05 09:02:38 +0000";
layers = (
{
layerId = m01;
shapes = (
{
attr = {
strokePos = "0";
};
closed = 1;
nodes = (
(155,295,l),
(155,299,o),
(156,300,o),
(160,300,c),
(405,300,l),
(617,300,o),
(705,360,o),
(705,498,c),
(705,502,l),
(705,640,o),
(617,700,o),
(405,700,c),
(100,700,l),
(63,700,o),
(50,688,o),
(50,650,c),
(50,613,o),
(63,600,o),
(100,600,c),
(405,600,l),
(566,600,o),
(605,575,o),
(605,502,c),
(605,498,l),
(605,425,o),
(566,400,o),
(405,400,c),
(160,400,l),
(81,400,o),
(55,374,o),
(55,295,c),
(55,50,l),
(55,13,o),
(68,0,o),
(105,0,c),
(143,0,o),
(155,13,o),
(155,50,c)
);
},
{
attr = {
strokePos = "0";
};
closed = 1;
nodes = (
(455,0,l),
(650,0,o),
(755,59,o),
(755,199,c),
(755,200,l),
(755,341,o),
(650,400,o),
(455,400,c),
(200,400,l),
(163,400,o),
(150,388,o),
(150,350,c),
(150,313,o),
(163,300,o),
(200,300,c),
(455,300,l),
(604,300,o),
(655,273,o),
(655,200,c),
(655,199,l),
(655,127,o),
(604,100,o),
(455,100,c),
(110,100,l),
(73,100,o),
(60,88,o),
(60,50,c),
(60,13,o),
(73,0,o),
(110,0,c)
);
}
);
width = 805;
}
);
unicode = 66;
},
{
glyphname = C;
lastChange = "2025-07-03 20:02:28 +0000";
layers = (
{
layerId = m01;
shapes = (
{
attr = {
strokePos = "0";
};
closed = 1;
nodes = (
(350,700,l),
(155,700,o),
(50,595,o),
(50,400,c),
(50,300,l),
(50,105,o),
(155,0,o),
(350,0,c),
(705,0,l),
(743,0,o),
(755,13,o),
(755,50,c),
(755,88,o),
(743,100,o),
(705,100,c),
(350,100,l),
(211,100,o),
(150,161,o),
(150,300,c),
(150,400,l),
(150,539,o),
(211,600,o),
(350,600,c),
(705,600,l),
(743,600,o),
(755,613,o),
(755,650,c),
(755,688,o),
(743,700,o),
(705,700,c)
);
}
);
width = 805;
}
);
unicode = 67;
},
{
glyphname = D;
kernRight = NO;
lastChange = "2025-07-05 09:03:24 +0000";
layers = (
{
layerId = m01;
shapes = (
{
attr = {
strokePos = "0";
};
closed = 1;
nodes = (
(455,0,l),
(650,0,o),
(755,105,o),
(755,300,c),
(755,400,l),
(755,595,o),
(650,700,o),
(455,700,c),
(100,700,l),
(63,700,o),
(50,688,o),
(50,650,c),
(50,613,o),
(63,600,o),
(100,600,c),
(455,600,l),
(594,600,o),
(655,539,o),
(655,400,c),
(655,300,l),
(655,161,o),
(594,100,o),
(455,100,c),
(100,100,l),
(63,100,o),
(50,88,o),
(50,50,c),
(50,13,o),
(63,0,o),
(100,0,c)
);
}
);
width = 805;
}
);
unicode = 68;
},
{
glyphname = E;
lastChange = "2025-07-05 09:02:51 +0000";
layers = (
{
layerId = m01;
shapes = (
{
attr = {
strokePos = "0";
};
closed = 1;
nodes = (
(350,700,l),
(155,700,o),
(50,595,o),
(50,400,c),
(50,300,l),
(50,105,o),
(155,0,o),
(350,0,c),
(705,0,l),
(743,0,o),
(755,13,o),
(755,50,c),
(755,88,o),
(743,100,o),
(705,100,c),
(350,100,l),
(211,100,o),
(150,161,o),
(150,300,c),
(150,400,l),
(150,539,o),
(211,600,o),
(350,600,c),
(705,600,l),
(743,600,o),
(755,613,o),
(755,650,c),
(755,688,o),
(743,700,o),
(705,700,c)
);
},
{
attr = {
strokePos = "1";
};
closed = 1;
nodes = (
(605,300,l),
(643,300,o),
(655,313,o),
(655,350,c),
(655,388,o),
(643,400,o),
(605,400,c),
(295,400,l),
(258,400,o),
(245,388,o),
(245,350,c),
(245,313,o),
(258,300,o),
(295,300,c)
);
}
);
width = 805;
}
);
unicode = 69;
},
{
glyphname = F;
lastChange = "2025-07-03 20:03:07 +0000";
layers = (
{
layerId = m01;
shapes = (
{
attr = {
strokePos = "0";
};
closed = 1;
nodes = (
(350,700,l),
(155,700,o),
(50,595,o),
(50,400,c),
(50,45,l),
(50,8,o),
(63,-5,o),
(100,-5,c),
(138,-5,o),
(150,8,o),
(150,45,c),
(150,400,l),
(150,539,o),
(211,600,o),
(350,600,c),
(705,600,l),
(743,600,o),
(755,613,o),
(755,650,c),
(755,688,o),
(743,700,o),
(705,700,c)
);
},
{
attr = {
strokePos = "1";
};
closed = 1;
nodes = (
(605,250,l),
(643,250,o),
(655,263,o),
(655,300,c),
(655,338,o),
(643,350,o),
(605,350,c),
(295,350,l),
(258,350,o),
(245,338,o),
(245,300,c),
(245,263,o),
(258,250,o),
(295,250,c)
);
}
);
width = 805;
}
);
unicode = 70;
},
{
glyphname = G;
lastChange = "2025-07-03 20:03:25 +0000";
layers = (
{
layerId = m01;
shapes = (
{
attr = {
strokePos = 1;
};
closed = 1;
nodes = (
(700,300,l),
(691,300,o),
(650,341,o),
(650,350,c),
(650,200,l),
(650,126,o),
(624,100,o),
(550,100,c),
(350,100,l),
(211,100,o),
(150,161,o),
(150,300,c),
(150,400,l),
(150,539,o),
(211,600,o),
(350,600,c),
(705,600,l),
(743,600,o),
(755,613,o),
(755,650,c),
(755,688,o),
(743,700,o),
(705,700,c),
(350,700,l),
(155,700,o),
(50,595,o),
(50,400,c),
(50,300,l),
(50,105,o),
(155,0,o),
(350,0,c),
(550,0,l),
(680,0,o),
(750,70,o),
(750,200,c),
(750,350,l),
(750,388,o),
(738,400,o),
(700,400,c),
(395,400,l),
(358,400,o),
(345,388,o),
(345,350,c),
(345,313,o),
(358,300,o),
(395,300,c)
);
}
);
width = 805;
}
);
unicode = 71;
},
{
glyphname = H;
lastChange = "2025-07-03 20:04:02 +0000";
layers = (
{
layerId = m01;
shapes = (
{
attr = {
strokePos = 1;
};
closed = 1;
nodes = (
(150,655,l),
(150,693,o),
(138,705,o),
(100,705,c),
(63,705,o),
(50,693,o),
(50,655,c),
(50,45,l),
(50,8,o),
(63,-5,o),
(100,-5,c),
(138,-5,o),
(150,8,o),
(150,45,c)
);
},
{
attr = {
strokePos = 1;
};
closed = 1;
nodes = (
(750,655,l),
(750,693,o),
(738,705,o),
(700,705,c),
(663,705,o),
(650,693,o),
(650,655,c),
(650,45,l),
(650,8,o),
(663,-5,o),
(700,-5,c),
(738,-5,o),
(750,8,o),
(750,45,c)
);
},
{
attr = {
strokePos = "1";
};
closed = 1;
nodes = (
(505,300,l),
(543,300,o),
(555,313,o),
(555,350,c),
(555,388,o),
(543,400,o),
(505,400,c),
(145,400,l),
(108,400,o),
(95,388,o),
(95,350,c),
(95,313,o),
(108,300,o),
(145,300,c)
);
}
);
width = 800;
}
);
unicode = 72;
},
{
glyphname = I;
lastChange = "2025-07-03 20:04:13 +0000";
layers = (
{
layerId = m01;
shapes = (
{
attr = {
strokePos = "1";
};
closed = 1;
nodes = (
(50,45,l),
(50,8,o),
(63,-5,o),
(100,-5,c),
(138,-5,o),
(150,8,o),
(150,45,c),
(150,655,l),
(150,693,o),
(138,705,o),
(100,705,c),
(63,705,o),
(50,693,o),
(50,655,c)
);
}
);
width = 200;
}
);
unicode = 73;
},
{
glyphname = J;
lastChange = "2025-07-03 20:04:20 +0000";
layers = (
{
layerId = m01;
shapes = (
{
attr = {
strokePos = 1;
};
closed = 1;
nodes = (
(705,600,l),
(668,600,o),
(655,613,o),
(655,650,c),
(655,300,l),
(655,161,o),
(594,100,o),
(455,100,c),
(100,100,l),
(63,100,o),
(50,88,o),
(50,50,c),
(50,13,o),
(63,0,o),
(100,0,c),
(455,0,l),
(650,0,o),
(755,105,o),
(755,300,c),
(755,650,l),
(755,688,o),
(743,700,o),
(705,700,c),
(300,700,l),
(263,700,o),
(250,688,o),
(250,650,c),
(250,613,o),
(263,600,o),
(300,600,c)
);
}
);
width = 805;
}
);
unicode = 74;
},
{
glyphname = K;
lastChange = "2025-07-03 20:05:30 +0000";
layers = (
{
layerId = m01;
shapes = (
{
attr = {
strokePos = "1";
};
closed = 1;
nodes = (
(150,655,l),
(150,693,o),
(138,705,o),
(100,705,c),
(63,705,o),
(50,693,o),
(50,655,c),
(50,45,l),
(50,8,o),
(63,-5,o),
(100,-5,c),
(138,-5,o),
(150,8,o),
(150,45,c)
);
},
{
attr = {
strokePos = "0";
};
closed = 1;
nodes = (
(686,249,l),
(648,356,o),
(566,400,o),
(433,400,c),
(50,400,l),
(50,300,l),
(433,300,l),
(530,300,o),
(570,277,o),
(592,216,c),
(660,29,l),
(669,4,o),
(681,-5,o),
(708,-5,c),
(757,-5,o),
(772,18,o),
(755,60,c)
);
},
{
attr = {
strokePos = "0";
};
closed = 1;
nodes = (
(772,682,o),
(757,705,o),
(708,705,c),
(681,705,o),
(669,696,o),
(660,671,c),
(592,484,l),
(570,423,o),
(530,400,o),
(433,400,c),
(50,400,l),
(50,300,l),
(433,300,l),
(566,300,o),
(648,344,o),
(686,451,c),
(755,640,l)
);
}
);
width = 808;
}
);
unicode = 75;
},
{
glyphname = L;
lastChange = "2025-07-03 20:05:41 +0000";
layers = (
{
layerId = m01;
shapes = (
{
attr = {
strokePos = 1;
};
closed = 1;
nodes = (
(350,100,l),
(211,100,o),
(150,161,o),
(150,300,c),
(150,655,l),
(150,693,o),
(138,705,o),
(100,705,c),
(63,705,o),
(50,693,o),
(50,655,c),
(50,300,l),
(50,105,o),
(155,0,o),
(350,0,c),
(705,0,l),
(743,0,o),
(755,13,o),
(755,50,c),
(755,88,o),
(743,100,o),
(705,100,c)
);
}
);
width = 805;
}
);
unicode = 76;
},
{
glyphname = M;
kernLeft = OM;
kernRight = NO;
lastChange = "2025-07-05 09:04:24 +0000";
layers = (
{
layerId = m01;
shapes = (
{
attr = {
strokePos = "0";
};
closed = 1;
nodes = (
(850,400,l),
(850,595,o),
(745,700,o),
(550,700,c),
(350,700,l),
(155,700,o),
(50,595,o),
(50,400,c),
(50,45,l),
(50,8,o),
(63,-5,o),
(100,-5,c),
(138,-5,o),
(150,8,o),
(150,45,c),
(150,400,l),
(150,539,o),
(211,600,o),
(350,600,c),
(550,600,l),
(689,600,o),
(750,539,o),
(750,400,c),
(750,45,l),
(750,8,o),
(763,-5,o),
(800,-5,c),
(838,-5,o),
(850,8,o),
(850,45,c)
);
},
{
attr = {
strokePos = "1";
};
closed = 1;
nodes = (
(400,45,l),
(400,8,o),
(413,-5,o),
(450,-5,c),
(488,-5,o),
(500,8,o),
(500,45,c),
(500,605,l),
(500,633,o),
(478,655,o),
(450,655,c),
(422,655,o),
(400,633,o),
(400,605,c)
);
}
);
width = 900;
}
);
unicode = 77;
},
{
glyphname = N;
kernLeft = OM;
kernRight = NO;
lastChange = "2025-07-05 09:04:19 +0000";
layers = (
{
layerId = m01;
shapes = (
{
attr = {
strokePos = "0";
};
closed = 1;
nodes = (
(750,400,l),
(750,595,o),
(645,700,o),
(450,700,c),
(350,700,l),
(155,700,o),
(50,595,o),
(50,400,c),
(50,45,l),
(50,8,o),
(63,-5,o),
(100,-5,c),
(138,-5,o),
(150,8,o),
(150,45,c),
(150,400,l),
(150,539,o),
(211,600,o),
(350,600,c),
(450,600,l),
(589,600,o),
(650,539,o),
(650,400,c),
(650,45,l),
(650,8,o),
(663,-5,o),
(700,-5,c),
(738,-5,o),
(750,8,o),
(750,45,c)
);
}
);
width = 800;
}
);
unicode = 78;
},
{
glyphname = O;
kernLeft = OM;
kernRight = NO;
lastChange = "2025-07-05 09:04:21 +0000";
layers = (
{
layerId = m01;
shapes = (
{
attr = {
strokePos = "0";
strokeWidth = 100;
};
closed = 1;
nodes = (
(50,400,ls),
(50,595,o),
(155,700,o),
(350,700,cs),
(450,700,ls),
(645,700,o),
(750,595,o),
(750,400,cs),
(750,300,ls),
(750,105,o),
(645,0,o),
(450,0,cs),
(350,0,ls),
(155,0,o),
(50,105,o),
(50,300,cs)
);
}
);
width = 800;
}
);
unicode = 79;
},
{
glyphname = P;
kernRight = NO;
lastChange = "2025-07-05 09:04:27 +0000";
layers = (
{
layerId = m01;
shapes = (
{
attr = {
strokePos = "0";
};
closed = 1;
nodes = (
(155,195,l),
(155,199,o),
(156,200,o),
(160,200,c),
(455,200,l),
(667,200,o),
(755,287,o),
(755,449,c),
(755,450,l),
(755,612,o),
(667,700,o),
(455,700,c),
(100,700,l),
(63,700,o),
(50,688,o),
(50,650,c),
(50,613,o),
(63,600,o),
(100,600,c),
(455,600,l),
(604,600,o),
(655,561,o),
(655,450,c),
(655,449,l),
(655,339,o),
(604,300,o),
(455,300,c),
(160,300,l),
(81,300,o),
(55,274,o),
(55,195,c),
(55,45,l),
(55,8,o),
(68,-5,o),
(105,-5,c),
(143,-5,o),
(155,8,o),
(155,45,c)
);
}
);
width = 805;
}
);
unicode = 80;
},
{
glyphname = Q;
kernLeft = NO;
kernRight = NO;
lastChange = "2025-07-05 09:04:33 +0000";
layers = (
{
layerId = m01;
shapes = (
{
attr = {
strokePos = 1;
};
closed = 1;
nodes = (
(718,64,o),
(670,100,o),
(550,100,c),
(350,100,l),
(211,100,o),
(150,161,o),
(150,300,c),
(150,400,l),
(150,539,o),
(211,600,o),
(350,600,c),
(450,600,l),
(589,600,o),
(650,539,o),
(650,400,c),
(650,245,l),
(650,208,o),
(663,195,o),
(700,195,c),
(738,195,o),
(750,208,o),
(750,245,c),
(750,400,l),
(750,595,o),
(645,700,o),
(450,700,c),
(350,700,l),
(155,700,o),
(50,595,o),
(50,400,c),
(50,300,l),
(50,105,o),
(155,0,o),
(350,0,c),
(550,0,l),
(610,0,o),
(634,-17,o),
(646,-67,c),
(653,-96,o),
(665,-106,o),
(695,-106,c),
(743,-106,o),
(755,-90,o),
(744,-44,c)
);
}
);
width = 800;
}
);
unicode = 81;
},
{
glyphname = R;
kernRight = NO;
lastChange = "2025-07-05 09:04:38 +0000";
layers = (
{
layerId = m01;
shapes = (
{
attr = {
strokePos = "0";
};
closed = 1;
nodes = (
(155,195,l),
(155,199,o),
(156,200,o),
(160,200,c),
(455,200,l),
(667,200,o),
(755,287,o),
(755,449,c),
(755,450,l),
(755,612,o),
(667,700,o),
(455,700,c),
(100,700,l),
(63,700,o),
(50,688,o),
(50,650,c),
(50,613,o),
(63,600,o),
(100,600,c),
(455,600,l),
(604,600,o),
(655,561,o),
(655,450,c),
(655,449,l),
(655,339,o),
(604,300,o),
(455,300,c),
(160,300,l),
(81,300,o),
(55,274,o),
(55,195,c),
(55,45,l),
(55,8,o),
(68,-5,o),
(105,-5,c),
(143,-5,o),
(155,8,o),
(155,45,c)
);
},
{
attr = {
strokePos = "0";
};
closed = 1;
nodes = (
(691,149,l),
(622,238,o),
(571,300,o),
(438,300,c),
(397,300,l),
(369,300,o),
(347,278,o),
(347,250,c),
(347,222,o),
(369,200,o),
(397,200,c),
(438,200,l),
(521,200,o),
(546,173,o),
(612,88,c),
(669,14,l),
(680,0,o),
(689,-5,o),
(748,-5,c),
(787,-5,o),
(796,21,o),
(767,56,c)
);
}
);
width = 808;
}
);
unicode = 82;
},
{
glyphname = S;
kernLeft = OM;
lastChange = "2025-07-05 09:04:41 +0000";
layers = (
{
annotations = (
{
pos = (527,393);
type = Text;
}
);
layerId = m01;
shapes = (
{
closed = 1;
nodes = (
(285,700,l),
(121,700,o),
(50,617,o),
(50,485,c),
(50,484,l),
(50,352,o),
(154,300,o),
(265,300,c),
(398,300,l),
(500,300,l),
(572,300,o),
(615,279,o),
(615,216,c),
(615,215,l),
(615,136,o),
(583,100,o),
(440,100,c),
(105,100,l),
(68,100,o),
(55,88,o),
(55,50,c),
(55,13,o),
(68,0,o),
(105,0,c),
(440,0,l),
(646,0,o),
(715,83,o),
(715,215,c),
(715,216,l),
(715,348,o),
(611,400,o),
(500,400,c),
(398,400,l),
(265,400,l),
(193,400,o),
(150,421,o),
(150,484,c),
(150,485,l),
(150,566,o),
(182,600,o),
(285,600,c),
(630,600,l),
(668,600,o),
(680,613,o),
(680,650,c),
(680,688,o),
(668,700,o),
(630,700,c)
);
}
);
width = 765;
}
);
unicode = 83;
},
{
glyphname = T;
kernLeft = T;
kernRight = T;
lastChange = "2025-07-05 09:03:47 +0000";
layers = (
{
layerId = m01;
shapes = (
{
attr = {
strokePos = "1";
};
closed = 1;
nodes = (
(720,600,l),
(758,600,o),
(770,613,o),
(770,650,c),
(770,688,o),
(758,700,o),
(720,700,c),
(100,700,l),
(63,700,o),
(50,688,o),
(50,650,c),
(50,613,o),
(63,600,o),
(100,600,c)
);
},
{
attr = {
strokePos = "1";
};
closed = 1;
nodes = (
(360,45,l),
(360,8,o),
(373,-5,o),
(410,-5,c),
(448,-5,o),
(460,8,o),
(460,45,c),
(460,605,l),
(460,643,o),
(448,655,o),
(410,655,c),
(373,655,o),
(360,643,o),
(360,605,c)
);
}
);
width = 820;
}
);
unicode = 84;
},
{
glyphname = U;
lastChange = "2025-07-03 20:19:49 +0000";
layers = (
{
layerId = m01;
shapes = (
{
attr = {
strokePos = "0";
};
closed = 1;
nodes = (
(50,300,l),
(50,105,o),
(155,0,o),
(350,0,c),
(450,0,l),
(645,0,o),
(750,105,o),
(750,300,c),
(750,655,l),
(750,693,o),
(738,705,o),
(700,705,c),
(663,705,o),
(650,693,o),
(650,655,c),
(650,300,l),
(650,161,o),
(589,100,o),
(450,100,c),
(350,100,l),
(211,100,o),
(150,161,o),
(150,300,c),
(150,655,l),
(150,693,o),
(138,705,o),
(100,705,c),
(63,705,o),
(50,693,o),
(50,655,c)
);
}
);
width = 800;
}
);
unicode = 85;
},
{
glyphname = V;
lastChange = "2025-07-03 20:19:03 +0000";
layers = (
{
layerId = m01;
shapes = (
{
attr = {
strokePos = "0";
};
closed = 1;
nodes = (
(174,177,l),
(204,60,o),
(272,0,o),
(393,0,c),
(451,0,l),
(572,0,o),
(640,60,o),
(670,177,c),
(791,646,l),
(802,693,o),
(790,708,o),
(742,708,c),
(713,708,o),
(701,698,o),
(694,669,c),
(573,202,l),
(554,128,o),
(523,100,o),
(451,100,c),
(393,100,l),
(321,100,o),
(290,128,o),
(271,202,c),
(150,669,l),
(143,698,o),
(131,708,o),
(102,708,c),
(54,708,o),
(42,693,o),
(53,646,c)
);
}
);
width = 844;
}
);
unicode = 86;
},
{
glyphname = W;
lastChange = "2025-07-03 20:08:06 +0000";
layers = (
{
layerId = m01;
shapes = (
{
attr = {
strokePos = "0";
};
closed = 1;
nodes = (
(50,300,l),
(50,105,o),
(155,0,o),
(350,0,c),
(550,0,l),
(745,0,o),
(850,105,o),
(850,300,c),
(850,655,l),
(850,693,o),
(838,705,o),
(800,705,c),
(763,705,o),
(750,693,o),
(750,655,c),
(750,300,l),
(750,161,o),
(689,100,o),
(550,100,c),
(350,100,l),
(211,100,o),
(150,161,o),
(150,300,c),
(150,655,l),
(150,693,o),
(138,705,o),
(100,705,c),
(63,705,o),
(50,693,o),
(50,655,c)
);
},
{
attr = {
strokePos = "1";
};
closed = 1;
nodes = (
(400,60,l),
(400,32,o),
(422,10,o),
(450,10,c),
(478,10,o),
(500,32,o),
(500,60,c),
(500,555,l),
(500,593,o),
(488,605,o),
(450,605,c),
(413,605,o),
(400,593,o),
(400,555,c)
);
}
);
width = 900;
}
);
unicode = 87;
},
{
glyphname = X;
lastChange = "2025-07-05 08:59:52 +0000";
layers = (
{
annotations = (
{
pos = (445.227,369.928);
type = Text;
}
);
layerId = m01;
shapes = (
{
attr = {
strokePos = "0";
};
closed = 1;
nodes = (
(122,451,l),
(160,344,o),
(242,300,o),
(355,300,c),
(441,300,l),
(574,300,o),
(656,344,o),
(694,451,c),
(763,648,l),
(772,683,o),
(765,705,o),
(726,705,c),
(689,705,o),
(677,705,o),
(668,679,c),
(600,484,l),
(578,423,o),
(538,400,o),
(441,400,c),
(355,400,l),
(277,400,o),
(238,423,o),
(216,484,c),
(148,679,l),
(140,705,o),
(128,705,o),
(90,705,c),
(52,705,o),
(44,683,o),
(53,648,c)
);
},
{
attr = {
strokePos = "0";
};
closed = 1;
nodes = (
(44,17,o),
(52,-5,o),
(90,-5,c),
(128,-5,o),
(140,-5,o),
(148,21,c),
(216,216,l),
(238,277,o),
(277,300,o),
(355,300,c),
(441,300,l),
(538,300,o),
(578,277,o),
(600,216,c),
(668,21,l),
(677,-5,o),
(689,-5,o),
(726,-5,c),
(765,-5,o),
(772,17,o),
(763,52,c),
(694,249,l),
(656,356,o),
(574,400,o),
(441,400,c),
(355,400,l),
(242,400,o),
(160,356,o),
(122,249,c),
(53,52,l)
);
}
);
width = 816;
}
);
unicode = 88;
},
{
glyphname = Y;
lastChange = "2025-07-05 09:01:53 +0000";
layers = (
{
layerId = m01;
shapes = (
{
attr = {
strokePos = "1";
};
closed = 1;
nodes = (
(350,45,l),
(350,8,o),
(363,-5,o),
(400,-5,c),
(438,-5,o),
(450,8,o),
(450,45,c),
(450,305,l),
(450,343,o),
(438,355,o),
(400,355,c),
(363,355,o),
(350,343,o),
(350,305,c)
);
},
{
attr = {
strokePos = "0";
};
closed = 1;
nodes = (
(122,451,l),
(160,344,o),
(242,300,o),
(355,300,c),
(441,300,l),
(574,300,o),
(656,344,o),
(694,451,c),
(763,648,l),
(772,683,o),
(765,705,o),
(726,705,c),
(689,705,o),
(677,705,o),
(668,679,c),
(600,484,l),
(578,423,o),
(538,400,o),
(441,400,c),
(355,400,l),
(277,400,o),
(238,423,o),
(216,484,c),
(148,679,l),
(140,705,o),
(128,705,o),
(90,705,c),
(52,705,o),
(44,683,o),
(53,648,c)
);
}
);
width = 766;
}
);
unicode = 89;
},
{
glyphname = Z;
lastChange = "2025-07-05 09:00:57 +0000";
layers = (
{
layerId = m01;
shapes = (
{
attr = {
strokePos = "0";
};
closed = 1;
nodes = (
(642,229,o),
(755,312,o),
(755,533,c),
(755,658,o),
(705,700,o),
(555,700,c),
(125,700,l),
(88,700,o),
(75,688,o),
(75,650,c),
(75,613,o),
(88,600,o),
(125,600,c),
(555,600,l),
(630,600,o),
(655,583,o),
(655,533,c),
(655,381,o),
(565,323,o),
(296,302,c),
(262,299,o),
(250,287,o),
(250,252,c),
(250,212,o),
(264,199,o),
(304,202,c)
);
},
{
attr = {
strokePos = "1";
};
closed = 1;
nodes = (
(710,0,l),
(748,0,o),
(760,13,o),
(760,50,c),
(760,88,o),
(748,100,o),
(710,100,c),
(100,100,l),
(63,100,o),
(50,88,o),
(50,50,c),
(50,13,o),
(63,0,o),
(100,0,c)
);
}
);
width = 810;
}
);
unicode = 90;
},
{
glyphname = A.ss01;
lastChange = "2025-07-06 03:02:30 +0000";
layers = (
{
annotations = (
{
pos = (337,-297);
text = "rc 192";
type = Text;
},
{
pos = (1792,240);
text = "rc 256";
type = Text;
}
);
layerId = m01;
shapes = (
{
attr = {
strokePos = 0;
};
closed = 1;
nodes = (
(832,480,l),
(832,645,o),
(782,700,o),
(632,700,c),
(604,700,l),
(490,700,o),
(449,648,o),
(318,450,c),
(49,62,l),
(42,53,o),
(25,31,o),
(25,17,c),
(25,1,o),
(43,-5,o),
(70,-5,c),
(119,-5,o),
(131,6,o),
(150,34,c),
(400,393,l),
(508,548,o),
(529,600,o),
(604,600,c),
(632,600,l),
(707,600,o),
(732,570,o),
(732,480,c),
(732,45,l),
(732,8,o),
(745,-5,o),
(782,-5,c),
(820,-5,o),
(832,8,o),
(832,45,c)
);
},
{
attr = {
strokePos = "1";
};
closed = 1;
nodes = (
(587,6,l),
(625,6,o),
(637,19,o),
(637,56,c),
(637,94,o),
(625,106,o),
(587,106,c),
(347,106,l),
(310,106,o),
(297,94,o),
(297,56,c),
(297,19,o),
(310,6,o),
(347,6,c)
);
}
);
width = 882;
}
);
},
{
glyphname = D.ss01;
lastChange = "2025-07-06 03:01:27 +0000";
layers = (
{
layerId = m01;
shapes = (
{
attr = {
strokePos = "0";
};
closed = 1;
nodes = (
(55,50,l),
(55,13,o),
(68,0,o),
(105,0,c),
(455,0,l),
(650,0,o),
(755,105,o),
(755,300,c),
(755,400,l),
(755,595,o),
(650,700,o),
(455,700,c),
(100,700,l),
(63,700,o),
(50,688,o),
(50,650,c),
(50,613,o),
(63,600,o),
(100,600,c),
(455,600,l),
(594,600,o),
(655,539,o),
(655,400,c),
(655,300,l),
(655,161,o),
(594,100,o),
(455,100,c),
(105,100,l),
(114,100,o),
(155,59,o),
(155,50,c),
(155,357,l),
(155,395,o),
(143,407,o),
(105,407,c),
(68,407,o),
(55,395,o),
(55,357,c)
);
}
);
width = 805;
}
);
},
{
glyphname = I.ss01;
lastChange = "2025-07-06 03:01:19 +0000";
layers = (
{
layerId = m01;
shapes = (
{
attr = {
strokePos = "1";
};
closed = 1;
nodes = (
(710,600,l),
(748,600,o),
(760,613,o),
(760,650,c),
(760,688,o),
(748,700,o),
(710,700,c),
(100,700,l),
(63,700,o),
(50,688,o),
(50,650,c),
(50,613,o),
(63,600,o),
(100,600,c)
);
},
{
attr = {
strokePos = "1";
};
closed = 1;
nodes = (
(710,0,l),
(748,0,o),
(760,13,o),
(760,50,c),
(760,88,o),
(748,100,o),
(710,100,c),
(100,100,l),
(63,100,o),
(50,88,o),
(50,50,c),
(50,13,o),
(63,0,o),
(100,0,c)
);
},
{
attr = {
strokePos = "1";
};
closed = 1;
nodes = (
(355,95,l),
(355,58,o),
(368,45,o),
(405,45,c),
(443,45,o),
(455,58,o),
(455,95,c),
(455,605,l),
(455,643,o),
(443,655,o),
(405,655,c),
(368,655,o),
(355,643,o),
(355,605,c)
);
}
);
width = 810;
}
);
},
{
glyphname = M.ss01;
lastChange = "2025-07-06 03:01:14 +0000";
layers = (
{
layerId = m01;
shapes = (
{
attr = {
strokePos = "0";
};
closed = 1;
nodes = (
(750,400,l),
(750,595,o),
(645,700,o),
(450,700,c),
(350,700,l),
(155,700,o),
(50,595,o),
(50,400,c),
(50,45,l),
(50,8,o),
(63,-5,o),
(100,-5,c),
(138,-5,o),
(150,8,o),
(150,45,c),
(150,400,l),
(150,539,o),
(211,600,o),
(350,600,c),
(450,600,l),
(589,600,o),
(650,539,o),
(650,400,c),
(650,45,l),
(650,8,o),
(663,-5,o),
(700,-5,c),
(738,-5,o),
(750,8,o),
(750,45,c)
);
},
{
attr = {
strokePos = "1";
};
closed = 1;
nodes = (
(350,45,l),
(350,8,o),
(363,-5,o),
(400,-5,c),
(438,-5,o),
(450,8,o),
(450,45,c),
(450,405,l),
(450,443,o),
(438,455,o),
(400,455,c),
(363,455,o),
(350,443,o),
(350,405,c)
);
}
);
width = 800;
}
);
},
{
glyphname = R.ss01;
lastChange = "2025-07-03 20:19:44 +0000";
layers = (
{
layerId = m01;
shapes = (
{
attr = {
strokePos = "0";
};
closed = 1;
nodes = (
(455,300,l),
(585,300,o),
(713,327,o),
(713,499,c),
(713,500,l),
(713,672,o),
(585,700,o),
(455,700,c),
(100,700,l),
(63,700,o),
(50,688,o),
(50,650,c),
(50,613,o),
(63,600,o),
(100,600,c),
(455,600,l),
(568,600,o),
(613,586,o),
(613,500,c),
(613,499,l),
(613,414,o),
(569,400,o),
(455,400,c),
(105,400,l),
(77,400,o),
(55,378,o),
(55,350,c),
(55,322,o),
(77,300,o),
(105,300,c)
);
},
{
closed = 1;
nodes = (
(128,392,l),
(120,397,o),
(110,400,o),
(100,400,c),
(72,400,o),
(50,378,o),
(50,350,c),
(50,333,o),
(58,317,o),
(72,308,c),
(528,13,l),
(550,-3,o),
(579,-5,o),
(628,-5,c),
(690,-5,o),
(694,24,o),
(663,44,c)
);
}
);
width = 763;
}
);
},
{
glyphname = W.ss01;
lastChange = "2025-07-06 03:01:07 +0000";
layers = (
{
layerId = m01;
shapes = (
{
attr = {
strokePos = "0";
};
closed = 1;
nodes = (
(50,300,l),
(50,105,o),
(155,0,o),
(350,0,c),
(450,0,l),
(645,0,o),
(750,105,o),
(750,300,c),
(750,655,l),
(750,693,o),
(738,705,o),
(700,705,c),
(663,705,o),
(650,693,o),
(650,655,c),
(650,300,l),
(650,161,o),
(589,100,o),
(450,100,c),
(350,100,l),
(211,100,o),
(150,161,o),
(150,300,c),
(150,655,l),
(150,693,o),
(138,705,o),
(100,705,c),
(63,705,o),
(50,693,o),
(50,655,c)
);
},
{
attr = {
strokePos = "1";
};
closed = 1;
nodes = (
(350,295,l),
(350,258,o),
(363,245,o),
(400,245,c),
(438,245,o),
(450,258,o),
(450,295,c),
(450,655,l),
(450,693,o),
(438,705,o),
(400,705,c),
(363,705,o),
(350,693,o),
(350,655,c)
);
}
);
width = 800;
}
);
},
{
glyphname = Z.ss01;
lastChange = "2025-03-19 17:16:46 +0000";
layers = (
{
layerId = m01;
shapes = (
{
attr = {
lineCapEnd = "2";
lineCapStart = "2";
strokePos = "0";
strokeWidth = 100;
};
closed = 0;
nodes = (
(80,700,l),
(545,700,ls),
(686,700,o),
(745,641,o),
(745,533,cs),
(745,250,o),
(255,0,o),
(55,0,cs)
);
},
{
attr = {
lineCapEnd = "2";
lineCapStart = "2";
strokePos = "1";
strokeWidth = 100;
};
closed = 0;
nodes = (
(755,100,l),
(55,100,l)
);
}
);
width = 810;
}
);
},
{
glyphname = X.ss02;
lastChange = "2025-07-05 08:41:15 +0000";
layers = (
{
annotations = (
{
pos = (445.227,369.928);
type = Text;
}
);
layerId = m01;
shapes = (
{
attr = {
fill = "1";
strokePos = "0";
strokeWidth = 10;
};
closed = 1;
nodes = (
(1686,1132,o),
(1672,1130,o),
(1663,1117,c),
(1654,1108,l),
(1654,1108,o),
(1314,774,o),
(975,440,c),
(837,646,o),
(716,826,o),
(682,879,c),
(674,889,o),
(661,899,o),
(643,893,c),
(630,889,o),
(622,887,o),
(610,879,c),
(596,874,o),
(589,861,o),
(591,848,c),
(591,841,o),
(591,841,o),
(591,841,c),
(603,693,o),
(598,534,o),
(576,387,c),
(102,390,l),
(78,390,o),
(64,379,o),
(62,355,c),
(59,348,o),
(59,353,o),
(62,346,c),
(64,318,o),
(80,310,o),
(102,310,c),
(102,310,o),
(577,306,o),
(563,310,c),
(535,182,o),
(496,65,o),
(438,-52,c),
(423,-81,o),
(403,-110,o),
(382,-141,c),
(372,-155,o),
(372,-170,o),
(384,-182,c),
(391,-190,o),
(403,-200,o),
(410,-205,c),
(426,-210,o),
(450,-206,o),
(458,-197,c),
(515,-139,o),
(714,54,o),
(901,238,c),
(1344,-266,l),
(1352,-278,o),
(1374,-291,o),
(1391,-282,c),
(1405,-276,o),
(1413,-270,o),
(1419,-260,c),
(1429,-244,o),
(1425,-229,o),
(1416,-215,c),
(1372,-148,o),
(1211,74,o),
(1049,311,c),
(1074,311,o),
(1167,311,o),
(1211,311,c),
(1229,311,o),
(1237,330,o),
(1238,349,c),
(1239,355,o),
(1239,366,o),
(1238,374,c),
(1237,391,o),
(1233,401,o),
(1213,406,c),
(1069,414,l),
(1387,728,o),
(1712,1047,o),
(1712,1047,c),
(1723,1055,l),
(1731,1067,o),
(1735,1082,o),
(1726,1098,c),
(1723,1105,o),
(1709,1117,o),
(1703,1120,c),
(1703,1120,l)
);
},
{
attr = {
fill = "1";
strokePos = "0";
strokeWidth = 10;
};
closed = 1;
nodes = (
(865,455,l),
(837,459,l),
(824,461,o),
(815,457,o),
(809,444,c),
(783,390,l),
(650,390,l),
(670,495,o),
(682,616,o),
(684,724,c),
(684,724,l)
);
},
{
attr = {
fill = "1";
strokePos = "0";
strokeWidth = 10;
};
closed = 1;
nodes = (
(570,100,o),
(607,201,o),
(633,310,c),
(724,310,o),
(777,310,o),
(847,310,c),
(847,310,l),
(697,162,o),
(596,66,o),
(528,-1,c),
(528,-1,l)
);
},
{
attr = {
fill = "1";
strokePos = "0";
strokeWidth = 10;
};
closed = 1;
nodes = (
(1466,314,l),
(1484,314,o),
(1493,326,o),
(1496,346,c),
(1496,352,o),
(1496,364,o),
(1496,370,c),
(1495,394,o),
(1482,401,o),
(1466,401,c),
(1379,401,l),
(1357,401,o),
(1348,391,o),
(1346,370,c),
(1346,364,o),
(1346,352,o),
(1346,346,c),
(1348,323,o),
(1357,314,o),
(1379,314,c)
);
}
);
width = 1591;
}
);
},
{
export = 0;
glyphname = E_X;
lastChange = "2025-07-03 20:34:58 +0000";
layers = (
{
backgroundImage = {
imagePath = "/var/folders/8q/l6m7zrf94m74_gqr897mtsqh0000gn/T/TemporaryItems/NSIRD_screencaptureui_9ZJVIZ/Screenshot 2025-07-04 at 04.23.20.png";
locked = 1;
pos = (-618,-1788);
scale = (17.4396,17.4396);
};
layerId = m01;
shapes = (
{
pos = (-30,0);
ref = E;
},
{
attr = {
fill = 1;
strokePos = 0;
strokeWidth = 10;
};
closed = 1;
nodes = (
(2691,1132,o),
(2677,1130,o),
(2668,1117,c),
(2659,1108,l),
(2659,1108,o),
(2319,774,o),
(1980,440,c),
(1842,646,o),
(1721,826,o),
(1687,879,c),
(1679,889,o),
(1666,899,o),
(1648,893,c),
(1635,889,o),
(1627,887,o),
(1615,879,c),
(1601,874,o),
(1594,861,o),
(1596,848,c),
(1596,841,o),
(1596,841,o),
(1596,841,c),
(1608,693,o),
(1603,534,o),
(1581,387,c),
(557,390,l),
(533,390,o),
(519,379,o),
(517,355,c),
(514,348,o),
(514,353,o),
(517,346,c),
(519,318,o),
(535,310,o),
(557,310,c),
(557,310,o),
(1082,311,o),
(1568,310,c),
(1540,182,o),
(1501,65,o),
(1443,-52,c),
(1428,-81,o),
(1408,-110,o),
(1387,-141,c),
(1377,-155,o),
(1377,-170,o),
(1389,-182,c),
(1396,-190,o),
(1408,-200,o),
(1415,-205,c),
(1431,-210,o),
(1455,-206,o),
(1463,-197,c),
(1520,-139,o),
(1719,54,o),
(1906,238,c),
(2349,-266,l),
(2357,-278,o),
(2379,-291,o),
(2396,-282,c),
(2410,-276,o),
(2418,-270,o),
(2424,-260,c),
(2434,-244,o),
(2430,-229,o),
(2421,-215,c),
(2377,-148,o),
(2216,74,o),
(2054,311,c),
(2079,311,o),
(2172,311,o),
(2216,311,c),
(2234,311,o),
(2242,330,o),
(2243,349,c),
(2244,355,o),
(2244,366,o),
(2243,374,c),
(2242,391,o),
(2238,401,o),
(2218,406,c),
(2074,414,l),
(2392,728,o),
(2717,1047,o),
(2717,1047,c),
(2728,1055,l),
(2736,1067,o),
(2740,1082,o),
(2731,1098,c),
(2728,1105,o),
(2714,1117,o),
(2708,1120,c),
(2708,1120,l)
);
},
{
attr = {
fill = 1;
strokePos = 0;
strokeWidth = 10;
};
closed = 1;
nodes = (
(1870,455,l),
(1842,459,l),
(1829,461,o),
(1820,457,o),
(1814,444,c),
(1788,390,l),
(1655,390,l),
(1675,495,o),
(1687,616,o),
(1689,724,c),
(1689,724,l)
);
},
{
attr = {
fill = 1;
strokePos = 0;
strokeWidth = 10;
};
closed = 1;
nodes = (
(1575,100,o),
(1612,201,o),
(1638,310,c),
(1729,310,o),
(1782,310,o),
(1852,310,c),
(1852,310,l),
(1702,162,o),
(1601,66,o),
(1533,-1,c),
(1533,-1,l)
);
},
{
attr = {
fill = 1;
strokePos = 0;
strokeWidth = 10;
};
closed = 1;
nodes = (
(2471,314,l),
(2489,314,o),
(2498,326,o),
(2501,346,c),
(2501,352,o),
(2501,364,o),
(2501,370,c),
(2500,394,o),
(2487,401,o),
(2471,401,c),
(2384,401,l),
(2362,401,o),
(2353,391,o),
(2351,370,c),
(2351,364,o),
(2351,352,o),
(2351,346,c),
(2353,323,o),
(2362,314,o),
(2384,314,c)
);
}
);
width = 2786;
}
);
},
{
glyphname = a;
kernLeft = oa;
lastChange = "2025-07-06 05:20:13 +0000";
layers = (
{
annotations = (
{
pos = (673,125);
type = Text;
}
);
layerId = m01;
shapes = (
{
attr = {
strokePos = 1;
};
closed = 1;
nodes = (
(560,134,o),
(516,90,o),
(411,90,c),
(307,90,l),
(196,90,o),
(150,136,o),
(150,247,c),
(150,353,l),
(150,464,o),
(196,510,o),
(307,510,c),
(401,510,l),
(511,510,o),
(560,461,o),
(560,351,c),
(560,140,l),
(560,76,o),
(595,24,o),
(647,2,c),
(664,-6,o),
(716,-13,o),
(716,38,c),
(716,73,o),
(709,84,o),
(686,94,c),
(667,103,o),
(660,114,o),
(660,140,c),
(660,351,l),
(660,517,o),
(567,610,o),
(401,610,c),
(307,610,l),
(140,610,o),
(50,520,o),
(50,353,c),
(50,247,l),
(50,80,o),
(140,-10,o),
(307,-10,c),
(381,-10,l),
(568,-10,o),
(630,52,o),
(630,239,c),
(619,254,o),
(630,264,o),
(610,264,c),
(590,264,o),
(571,254,o),
(560,239,c)
);
}
);
width = 756;
}
);
unicode = 97;
},
{
glyphname = b;
lastChange = "2025-07-05 09:36:58 +0000";
layers = (
{
layerId = m01;
shapes = (
{
attr = {
strokePos = "1";
};
closed = 1;
nodes = (
(150,351,l),
(150,461,o),
(199,510,o),
(309,510,c),
(393,510,l),
(504,510,o),
(550,464,o),
(550,353,c),
(550,247,l),
(550,136,o),
(504,90,o),
(393,90,c),
(299,90,l),
(194,90,o),
(150,134,o),
(150,239,c),
(150,705,l),
(150,743,o),
(138,755,o),
(100,755,c),
(63,755,o),
(50,743,o),
(50,705,c),
(50,239,l),
(50,78,o),
(138,-10,o),
(299,-10,c),
(393,-10,l),
(560,-10,o),
(650,80,o),
(650,247,c),
(650,353,l),
(650,520,o),
(560,610,o),
(393,610,c),
(309,610,l),
(143,610,o),
(50,517,o),
(50,351,c),
(50,285,l),
(50,257,o),
(72,235,o),
(100,235,c),
(128,235,o),
(150,257,o),
(150,285,c)
);
}
);
width = 700;
}
);
unicode = 98;
},
{
glyphname = c;
kernLeft = oa;
lastChange = "2025-07-06 05:21:10 +0000";
layers = (
{
layerId = m01;
shapes = (
{
attr = {
strokePos = "1";
};
closed = 1;
nodes = (
(307,100,l),
(196,100,o),
(150,146,o),
(150,257,c),
(150,343,l),
(150,454,o),
(196,500,o),
(307,500,c),
(605,500,l),
(643,500,o),
(655,513,o),
(655,550,c),
(655,588,o),
(643,600,o),
(605,600,c),
(307,600,l),
(140,600,o),
(50,510,o),
(50,343,c),
(50,257,l),
(50,90,o),
(140,0,o),
(307,0,c),
(605,0,l),
(643,0,o),
(655,13,o),
(655,50,c),
(655,88,o),
(643,100,o),
(605,100,c)
);
}
);
width = 700;
}
);
unicode = 99;
},
{
glyphname = e;
kernLeft = oa;
lastChange = "2025-07-06 05:20:59 +0000";
layers = (
{
layerId = m01;
shapes = (
{
attr = {
strokePos = 0;
};
closed = 1;
nodes = (
(550,250,l),
(615,250,o),
(650,285,o),
(650,350,c),
(650,351,l),
(650,517,o),
(557,610,o),
(391,610,c),
(307,610,l),
(140,610,o),
(50,520,o),
(50,353,c),
(50,257,l),
(50,90,o),
(140,0,o),
(307,0,c),
(585,0,l),
(623,0,o),
(635,13,o),
(635,50,c),
(635,88,o),
(623,100,o),
(585,100,c),
(307,100,l),
(196,100,o),
(150,146,o),
(150,257,c),
(150,353,l),
(150,464,o),
(196,510,o),
(307,510,c),
(391,510,l),
(501,510,o),
(550,461,o),
(550,351,c),
(550,350,l),
(550,350,o),
(550,350,o),
(550,350,c),
(145,350,l),
(117,350,o),
(95,328,o),
(95,300,c),
(95,272,o),
(117,250,o),
(145,250,c)
);
}
);
width = 700;
}
);
unicode = 101;
},
{
glyphname = f;
kernLeft = oa;
lastChange = "2025-07-06 05:21:24 +0000";
layers = (
{
layerId = m01;
shapes = (
{
closed = 1;
nodes = (
(500,370,l),
(538,370,o),
(550,383,o),
(550,420,c),
(550,458,o),
(538,470,o),
(500,470,c),
(100,470,l),
(63,470,o),
(50,458,o),
(50,420,c),
(50,383,o),
(63,370,o),
(100,370,c)
);
},
{
attr = {
strokePos = "1";
};
closed = 1;
nodes = (
(295,443,l),
(295,554,o),
(341,600,o),
(452,600,c),
(520,600,l),
(558,600,o),
(570,613,o),
(570,650,c),
(570,688,o),
(558,700,o),
(520,700,c),
(452,700,l),
(285,700,o),
(195,610,o),
(195,443,c),
(195,45,l),
(195,8,o),
(208,-5,o),
(245,-5,c),
(283,-5,o),
(295,8,o),
(295,45,c)
);
}
);
width = 570;
}
);
unicode = 102;
},
{
glyphname = g;
kernLeft = oa;
lastChange = "2025-07-06 05:21:19 +0000";
layers = (
{
layerId = m01;
shapes = (
{
attr = {
identifier = ID0x122586830;
strokePos = 0;
};
closed = 1;
nodes = (
(394,-200,l),
(560,-200,o),
(650,-120,o),
(650,46,c),
(650,361,l),
(650,522,o),
(562,610,o),
(401,610,c),
(307,610,l),
(140,610,o),
(50,520,o),
(50,353,c),
(50,247,l),
(50,80,o),
(140,-10,o),
(307,-10,c),
(361,-10,l),
(527,-10,o),
(620,83,o),
(620,249,c),
(650,315,l),
(650,343,o),
(628,365,o),
(600,365,c),
(572,365,o),
(550,343,o),
(550,315,c),
(550,249,l),
(550,139,o),
(501,90,o),
(391,90,c),
(307,90,l),
(196,90,o),
(150,136,o),
(150,247,c),
(150,353,l),
(150,464,o),
(196,510,o),
(307,510,c),
(401,510,l),
(506,510,o),
(550,466,o),
(550,361,c),
(550,46,l),
(550,-61,o),
(508,-100,o),
(394,-100,c),
(145,-100,l),
(108,-100,o),
(95,-112,o),
(95,-150,c),
(95,-187,o),
(108,-200,o),
(145,-200,c)
);
}
);
width = 700;
}
);
unicode = 103;
},
{
glyphname = h;
lastChange = "2025-07-05 09:41:45 +0000";
layers = (
{
layerId = m01;
shapes = (
{
attr = {
strokePos = "1";
};
closed = 1;
nodes = (
(150,705,l),
(150,743,o),
(138,755,o),
(100,755,c),
(63,755,o),
(50,743,o),
(50,705,c),
(50,45,l),
(50,8,o),
(63,-5,o),
(100,-5,c),
(138,-5,o),
(150,8,o),
(150,45,c)
);
},
{
attr = {
strokePos = "1";
};
closed = 1;
nodes = (
(163,474,o),
(212,510,o),
(309,510,c),
(393,510,l),
(504,510,o),
(550,464,o),
(550,353,c),
(550,45,l),
(550,8,o),
(563,-5,o),
(600,-5,c),
(638,-5,o),
(650,8,o),
(650,45,c),
(650,353,l),
(650,520,o),
(560,610,o),
(393,610,c),
(309,610,l),
(161,610,o),
(71,537,o),
(53,402,c),
(49,372,o),
(73,346,o),
(103,346,c),
(128,346,o),
(149,366,o),
(152,389,c)
);
}
);
width = 700;
}
);
unicode = 104;
},
{
glyphname = i;
lastChange = "2025-07-05 09:38:29 +0000";
layers = (
{
layerId = m01;
shapes = (
{
attr = {
strokePos = "1";
};
closed = 1;
nodes = (
(200,555,l),
(200,593,o),
(188,605,o),
(150,605,c),
(113,605,o),
(100,593,o),
(100,555,c),
(100,45,l),
(100,8,o),
(113,-5,o),
(150,-5,c),
(188,-5,o),
(200,8,o),
(200,45,c)
);
},
{
attr = {
strokePos = "1";
};
closed = 1;
nodes = (
(210,736,l),
(210,781,o),
(195,796,o),
(150,796,c),
(105,796,o),
(90,781,o),
(90,736,c),
(90,724,l),
(90,679,o),
(105,664,o),
(150,664,c),
(195,664,o),
(210,679,o),
(210,724,c)
);
}
);
width = 300;
}
);
unicode = 105;
},
{
glyphname = j;
lastChange = "2025-07-05 09:46:29 +0000";
layers = (
{
layerId = m01;
shapes = (
{
attr = {
strokePos = 0;
};
closed = 1;
nodes = (
(114,-180,o),
(186,-92,o),
(186,56,c),
(186,555,l),
(186,593,o),
(174,605,o),
(136,605,c),
(99,605,o),
(86,593,o),
(86,555,c),
(86,56,l),
(86,-40,o),
(50,-88,o),
(-31,-98,c),
(-64,-102,o),
(-75,-114,o),
(-75,-147,c),
(-75,-190,o),
(-61,-203,o),
(-19,-197,c)
);
},
{
attr = {
strokePos = "1";
};
closed = 1;
nodes = (
(196,736,l),
(196,781,o),
(181,796,o),
(136,796,c),
(91,796,o),
(76,781,o),
(76,736,c),
(76,724,l),
(76,679,o),
(91,664,o),
(136,664,c),
(181,664,o),
(196,679,o),
(196,724,c)
);
}
);
width = 286;
}
);
unicode = 106;
},
{
glyphname = k;
lastChange = "2025-07-06 05:19:48 +0000";
layers = (
{
layerId = m01;
shapes = (
{
attr = {
strokePos = "1";
};
closed = 1;
nodes = (
(150,705,l),
(150,743,o),
(138,755,o),
(100,755,c),
(63,755,o),
(50,743,o),
(50,705,c),
(50,45,l),
(50,8,o),
(63,-5,o),
(100,-5,c),
(138,-5,o),
(150,8,o),
(150,45,c)
);
},
{
attr = {
strokePos = "0";
};
closed = 1;
nodes = (
(360,400,l),
(464,400,o),
(520,456,o),
(520,660,c),
(520,705,l),
(520,743,o),
(508,755,o),
(470,755,c),
(433,755,o),
(420,743,o),
(420,705,c),
(420,660,l),
(420,525,o),
(413,500,o),
(360,500,c),
(144,500,l),
(144,400,l)
);
},
{
attr = {
strokePos = "0";
};
closed = 1;
nodes = (
(620,294,l),
(620,410,o),
(530,500,o),
(364,500,c),
(50,500,l),
(50,400,l),
(364,400,l),
(468,400,o),
(520,358,o),
(520,294,c),
(520,45,l),
(520,8,o),
(533,-5,o),
(570,-5,c),
(608,-5,o),
(620,8,o),
(620,45,c)
);
}
);
width = 670;
}
);
unicode = 107;
},
{
glyphname = l;
lastChange = "2025-07-05 09:38:54 +0000";
layers = (
{
layerId = m01;
shapes = (
{
attr = {
strokePos = "1";
};
closed = 1;
nodes = (
(200,705,l),
(200,743,o),
(188,755,o),
(150,755,c),
(113,755,o),
(100,743,o),
(100,705,c),
(100,45,l),
(100,8,o),
(113,-5,o),
(150,-5,c),
(188,-5,o),
(200,8,o),
(200,45,c)
);
}
);
width = 300;
}
);
unicode = 108;
},
{
glyphname = m;
lastChange = "2025-07-05 09:40:09 +0000";
layers = (
{
layerId = m01;
shapes = (
{
attr = {
strokePos = "1";
};
closed = 1;
nodes = (
(150,555,l),
(150,593,o),
(138,605,o),
(100,605,c),
(63,605,o),
(50,593,o),
(50,555,c),
(50,45,l),
(50,8,o),
(63,-5,o),
(100,-5,c),
(138,-5,o),
(150,8,o),
(150,45,c)
);
},
{
attr = {
strokePos = "1";
};
closed = 1;
nodes = (
(150,457,o),
(195,500,o),
(266,500,c),
(286,500,l),
(368,500,o),
(400,454,o),
(400,343,c),
(400,45,l),
(400,8,o),
(413,-5,o),
(450,-5,c),
(488,-5,o),
(500,8,o),
(500,45,c),
(500,383,l),
(500,510,o),
(425,600,o),
(286,600,c),
(286,600,l),
(163,600,o),
(117,525,o),
(103,391,c),
(100,363,o),
(72,336,o),
(102,336,c),
(128,336,o),
(147,350,o),
(150,376,c)
);
},
{
attr = {
strokePos = "1";
};
closed = 1;
nodes = (
(500,456,o),
(545,500,o),
(616,500,c),
(636,500,l),
(718,500,o),
(750,454,o),
(750,343,c),
(750,45,l),
(750,8,o),
(763,-5,o),
(800,-5,c),
(838,-5,o),
(850,8,o),
(850,45,c),
(850,343,l),
(850,510,o),
(775,600,o),
(636,600,c),
(616,600,l),
(493,600,o),
(417,525,o),
(403,391,c),
(400,363,o),
(422,336,o),
(452,336,c),
(478,336,o),
(497,350,o),
(500,376,c)
);
}
);
width = 900;
}
);
unicode = 109;
},
{
glyphname = n;
kernRight = e;
lastChange = "2025-07-05 09:45:13 +0000";
layers = (
{
layerId = m01;
shapes = (
{
attr = {
strokePos = "1";
};
closed = 1;
nodes = (
(150,555,l),
(150,593,o),
(138,605,o),
(100,605,c),
(63,605,o),
(50,593,o),
(50,555,c),
(50,45,l),
(50,8,o),
(63,-5,o),
(100,-5,c),
(138,-5,o),
(150,8,o),
(150,45,c)
);
},
{
attr = {
strokePos = "1";
};
closed = 1;
nodes = (
(150,468,o),
(211,510,o),
(309,510,c),
(373,510,l),
(506,510,o),
(550,468,o),
(550,358,c),
(550,45,l),
(550,8,o),
(563,-5,o),
(600,-5,c),
(638,-5,o),
(650,8,o),
(650,45,c),
(650,358,l),
(650,525,o),
(560,610,o),
(373,610,c),
(349,610,l),
(177,610,o),
(103,559,o),
(83,407,c),
(79,377,o),
(73,351,o),
(103,351,c),
(128,351,o),
(147,361,o),
(150,384,c)
);
}
);
width = 700;
}
);
unicode = 110;
},
{
glyphname = o;
kernLeft = oa;
lastChange = "2025-07-06 05:20:32 +0000";
layers = (
{
layerId = m01;
shapes = (
{
attr = {
strokePos = "1";
};
closed = 1;
nodes = (
(550,239,l),
(550,135,o),
(504,90,o),
(391,90,c),
(307,90,l),
(196,90,o),
(150,136,o),
(150,247,c),
(150,353,l),
(150,464,o),
(196,510,o),
(307,510,c),
(391,510,l),
(501,510,o),
(550,460,o),
(550,351,c),
(550,247,l)
);
},
{
attr = {
strokePos = "1";
};
closed = 1;
nodes = (
(650,351,l),
(650,514,o),
(557,610,o),
(391,610,c),
(307,610,l),
(140,610,o),
(50,520,o),
(50,353,c),
(50,247,l),
(50,80,o),
(140,-10,o),
(307,-10,c),
(391,-10,l),
(558,-10,o),
(650,78,o),
(650,239,c),
(650,247,l)
);
}
);
width = 700;
}
);
unicode = 111;
},
{
glyphname = p;
kernLeft = oa;
lastChange = "2025-07-06 05:21:37 +0000";
layers = (
{
layerId = m01;
shapes = (
{
attr = {
identifier = ID0x1374d10f0;
strokePos = "1";
};
closed = 1;
nodes = (
(150,361,l),
(150,466,o),
(194,510,o),
(299,510,c),
(393,510,l),
(504,510,o),
(550,464,o),
(550,353,c),
(550,247,l),
(550,136,o),
(504,90,o),
(393,90,c),
(309,90,l),
(199,90,o),
(150,139,o),
(150,249,c),
(150,315,l),
(150,343,o),
(128,365,o),
(100,365,c),
(72,365,o),
(50,343,o),
(50,315,c),
(50,249,l),
(50,83,o),
(143,-10,o),
(309,-10,c),
(393,-10,l),
(560,-10,o),
(650,80,o),
(650,247,c),
(650,353,l),
(650,520,o),
(560,610,o),
(393,610,c),
(299,610,l),
(138,610,o),
(50,522,o),
(50,361,c),
(50,-155,l),
(50,-192,o),
(63,-205,o),
(100,-205,c),
(138,-205,o),
(150,-192,o),
(150,-155,c)
);
}
);
width = 700;
}
);
unicode = 112;
},
{
glyphname = r;
kernRight = r;
lastChange = "2025-07-05 09:34:41 +0000";
layers = (
{
layerId = m01;
shapes = (
{
attr = {
strokePos = "1";
};
closed = 1;
nodes = (
(150,555,l),
(150,593,o),
(138,605,o),
(100,605,c),
(63,605,o),
(50,593,o),
(50,555,c),
(50,45,l),
(50,8,o),
(63,-5,o),
(100,-5,c),
(138,-5,o),
(150,8,o),
(150,45,c)
);
},
{
attr = {
strokePos = 0;
};
closed = 1;
nodes = (
(387,600,l),
(185,600,o),
(67,482,o),
(52,273,c),
(50,245,o),
(72,219,o),
(102,219,c),
(128,219,o),
(150,240,o),
(151,265,c),
(162,425,o),
(241,500,o),
(387,500,c),
(505,500,l),
(543,500,o),
(555,513,o),
(555,550,c),
(555,588,o),
(543,600,o),
(505,600,c)
);
}
);
width = 605;
}
);
unicode = 114;
},
{
glyphname = s;
kernLeft = oa;
lastChange = "2025-07-06 05:21:30 +0000";
layers = (
{
annotations = (
{
pos = (341,122);
type = Text;
}
);
layerId = m01;
shapes = (
{
attr = {
strokePos = "1";
};
closed = 1;
nodes = (
(480,0,l),
(587,0,o),
(661,74,o),
(661,181,c),
(661,185,l),
(661,297,o),
(594,365,o),
(427,365,c),
(220,365,l),
(169,365,o),
(150,379,o),
(150,415,c),
(150,430,l),
(150,481,o),
(178,500,o),
(250,500,c),
(585,500,l),
(623,500,o),
(635,513,o),
(635,550,c),
(635,588,o),
(623,600,o),
(585,600,c),
(250,600,l),
(116,600,o),
(50,544,o),
(50,430,c),
(50,415,l),
(50,315,o),
(106,265,o),
(220,265,c),
(427,265,l),
(522,265,o),
(561,249,o),
(561,185,c),
(561,181,l),
(561,129,o),
(532,100,o),
(480,100,c),
(105,100,l),
(68,100,o),
(55,88,o),
(55,50,c),
(55,13,o),
(68,0,o),
(105,0,c)
);
}
);
width = 711;
}
);
unicode = 115;
},
{
glyphname = t;
kernLeft = t;
lastChange = "2025-07-05 09:47:28 +0000";
layers = (
{
layerId = m01;
shapes = (
{
closed = 1;
nodes = (
(63,550,o),
(50,537,o),
(50,500,c),
(50,462,o),
(63,450,o),
(100,450,c),
(500,450,l),
(538,450,o),
(550,462,o),
(550,500,c),
(550,537,o),
(538,550,o),
(500,550,c),
(100,550,l)
);
},
{
attr = {
strokePos = "1";
};
closed = 1;
nodes = (
(295,687,o),
(283,700,o),
(245,700,c),
(208,700,o),
(195,687,o),
(195,650,c),
(195,252,l),
(195,85,o),
(285,-5,o),
(452,-5,c),
(520,-5,l),
(558,-5,o),
(570,7,o),
(570,45,c),
(570,82,o),
(558,95,o),
(520,95,c),
(452,95,l),
(341,95,o),
(295,141,o),
(295,252,c),
(295,650,l)
);
}
);
width = 600;
}
);
unicode = 116;
},
{
glyphname = v;
lastChange = "2025-07-06 05:22:08 +0000";
layers = (
{
layerId = m01;
shapes = (
{
attr = {
strokePos = 0;
};
closed = 1;
nodes = (
(99,200,l),
(124,74,o),
(171,0,o),
(299,0,c),
(383,0,l),
(513,0,o),
(558,72,o),
(583,200,c),
(652,549,l),
(660,593,o),
(647,607,o),
(602,607,c),
(571,607,o),
(558,597,o),
(553,566,c),
(485,219,l),
(465,118,o),
(448,100,o),
(383,100,c),
(299,100,l),
(236,100,o),
(216,122,o),
(197,219,c),
(127,566,l),
(122,598,o),
(109,608,o),
(78,608,c),
(33,608,o),
(20,593,o),
(29,549,c)
);
}
);
width = 680;
}
);
unicode = 118;
},
{
glyphname = w;
lastChange = "2025-07-05 09:35:20 +0000";
layers = (
{
layerId = m01;
shapes = (
{
attr = {
strokePos = 0;
};
closed = 1;
nodes = (
(50,259,l),
(50,93,o),
(128,0,o),
(266,0,c),
(286,0,l),
(425,0,o),
(500,90,o),
(500,257,c),
(500,555,l),
(500,593,o),
(488,605,o),
(450,605,c),
(413,605,o),
(400,593,o),
(400,555,c),
(400,257,l),
(400,146,o),
(368,100,o),
(286,100,c),
(266,100,l),
(185,100,o),
(150,149,o),
(150,259,c),
(150,557,l),
(150,595,o),
(138,607,o),
(100,607,c),
(63,607,o),
(50,595,o),
(50,557,c)
);
},
{
attr = {
strokePos = "1";
};
closed = 1;
nodes = (
(750,257,l),
(750,146,o),
(718,100,o),
(636,100,c),
(616,100,l),
(545,100,o),
(510,138,o),
(502,219,c),
(499,245,o),
(478,264,o),
(452,264,c),
(422,264,o),
(400,237,o),
(403,209,c),
(417,75,o),
(493,0,o),
(616,0,c),
(636,0,l),
(775,0,o),
(850,90,o),
(850,257,c),
(850,555,l),
(850,593,o),
(838,605,o),
(800,605,c),
(763,605,o),
(750,593,o),
(750,555,c)
);
}
);
width = 900;
}
);
unicode = 119;
},
{
glyphname = x;
lastChange = "2025-07-05 09:49:43 +0000";
layers = (
{
layerId = m01;
shapes = (
{
attr = {
strokePos = "0";
};
closed = 1;
nodes = (
(89,450,l),
(143,330,o),
(161,250,o),
(289,250,c),
(413,250,l),
(543,250,o),
(559,328,o),
(613,450,c),
(651,538,l),
(678,586,o),
(666,604,o),
(606,604,c),
(582,604,o),
(571,597,o),
(561,575,c),
(521,490,l),
(460,352,o),
(467,350,o),
(413,350,c),
(289,350,l),
(236,350,o),
(240,358,o),
(180,491,c),
(139,576,l),
(129,598,o),
(118,605,o),
(94,605,c),
(33,605,o),
(22,587,o),
(49,538,c)
);
},
{
attr = {
strokePos = "0";
};
closed = 1;
nodes = (
(22,13,o),
(33,-5,o),
(94,-5,c),
(118,-5,o),
(129,2,o),
(139,24,c),
(180,109,l),
(240,242,o),
(236,250,o),
(289,250,c),
(413,250,l),
(467,250,o),
(460,248,o),
(521,110,c),
(561,25,l),
(571,3,o),
(582,-4,o),
(606,-4,c),
(666,-4,o),
(678,14,o),
(651,62,c),
(613,150,l),
(559,272,o),
(543,350,o),
(413,350,c),
(289,350,l),
(161,350,o),
(143,270,o),
(89,150,c),
(49,62,l)
);
}
);
width = 700;
}
);
unicode = 120;
},
{
glyphname = y;
lastChange = "2025-07-05 09:35:00 +0000";
layers = (
{
layerId = m01;
shapes = (
{
attr = {
identifier = ID0x122586830;
strokePos = "0";
};
closed = 1;
nodes = (
(50,247,l),
(50,80,o),
(140,-10,o),
(307,-10,c),
(391,-10,l),
(557,-10,o),
(650,83,o),
(650,249,c),
(650,315,l),
(650,343,o),
(628,365,o),
(600,365,c),
(572,365,o),
(550,343,o),
(550,315,c),
(550,249,l),
(550,139,o),
(501,90,o),
(391,90,c),
(307,90,l),
(196,90,o),
(150,136,o),
(150,247,c),
(150,555,l),
(150,593,o),
(138,605,o),
(100,605,c),
(63,605,o),
(50,593,o),
(50,555,c)
);
},
{
attr = {
identifier = ID0x122586830;
strokePos = "0";
};
closed = 1;
nodes = (
(394,-200,l),
(560,-200,o),
(650,-120,o),
(650,46,c),
(650,555,l),
(650,593,o),
(638,605,o),
(600,605,c),
(563,605,o),
(550,593,o),
(550,555,c),
(550,46,l),
(550,-61,o),
(508,-100,o),
(394,-100,c),
(145,-100,l),
(108,-100,o),
(95,-112,o),
(95,-150,c),
(95,-187,o),
(108,-200,o),
(145,-200,c)
);
}
);
width = 700;
}
);
unicode = 121;
},
{
glyphname = z;
lastChange = "2025-07-05 09:44:54 +0000";
layers = (
{
layerId = m01;
shapes = (
{
attr = {
strokePos = "0";
};
closed = 1;
nodes = (
(299,39,o),
(636,237,o),
(636,457,c),
(636,549,o),
(586,600,o),
(465,600,c),
(121,600,l),
(84,600,o),
(71,588,o),
(71,550,c),
(71,513,o),
(84,500,o),
(121,500,c),
(465,500,l),
(522,500,o),
(536,498,o),
(536,457,c),
(536,303,o),
(241,129,o),
(91,103,c),
(68,99,o),
(50,78,o),
(50,53,c),
(50,23,o),
(79,-1,o),
(109,4,c)
);
},
{
attr = {
strokePos = "1";
};
closed = 1;
nodes = (
(600,0,l),
(638,0,o),
(650,13,o),
(650,50,c),
(650,88,o),
(638,100,o),
(600,100,c),
(100,100,l),
(63,100,o),
(50,88,o),
(50,50,c),
(50,13,o),
(63,0,o),
(100,0,c)
);
}
);
width = 700;
}
);
unicode = 122;
},
{
glyphname = a.ss01;
kernLeft = e;
lastChange = "2025-07-06 03:04:07 +0000";
layers = (
{
layerId = m01;
shapes = (
{
attr = {
strokePos = 0;
};
closed = 1;
nodes = (
(150,360,l),
(85,360,o),
(50,325,o),
(50,260,c),
(50,259,l),
(50,93,o),
(143,0,o),
(309,0,c),
(393,0,l),
(560,0,o),
(650,90,o),
(650,257,c),
(650,353,l),
(650,520,o),
(560,610,o),
(393,610,c),
(115,610,l),
(78,610,o),
(65,598,o),
(65,560,c),
(65,523,o),
(78,510,o),
(115,510,c),
(393,510,l),
(504,510,o),
(550,464,o),
(550,353,c),
(550,257,l),
(550,146,o),
(504,100,o),
(393,100,c),
(309,100,l),
(199,100,o),
(150,149,o),
(150,259,c),
(150,260,l),
(150,260,o),
(150,260,o),
(150,260,c),
(555,260,l),
(583,260,o),
(605,282,o),
(605,310,c),
(605,338,o),
(583,360,o),
(555,360,c)
);
}
);
width = 700;
}
);
},
{
glyphname = zero;
lastChange = "2025-07-05 19:01:52 +0000";
layers = (
{
layerId = m01;
shapes = (
{
attr = {
strokePos = "0";
strokeWidth = 100;
};
closed = 1;
nodes = (
(50,400,ls),
(50,595,o),
(155,700,o),
(350,700,cs),
(450,700,ls),
(645,700,o),
(750,595,o),
(750,400,cs),
(750,300,ls),
(750,105,o),
(645,0,o),
(450,0,cs),
(350,0,ls),
(155,0,o),
(50,105,o),
(50,300,cs)
);
}
);
width = 800;
}
);
unicode = 48;
},
{
glyphname = one;
lastChange = "2025-07-05 19:00:57 +0000";
layers = (
{
layerId = m01;
shapes = (
{
attr = {
strokePos = "1";
};
closed = 1;
nodes = (
(130,600,l),
(269,600,o),
(330,539,o),
(330,400,c),
(330,45,l),
(330,8,o),
(343,-5,o),
(380,-5,c),
(418,-5,o),
(430,8,o),
(430,45,c),
(430,400,l),
(430,595,o),
(325,700,o),
(130,700,c),
(75,700,l),
(38,700,o),
(25,688,o),
(25,650,c),
(25,613,o),
(38,600,o),
(75,600,c)
);
}
);
width = 480;
}
);
unicode = 49;
},
{
glyphname = two;
lastChange = "2025-07-05 19:01:17 +0000";
layers = (
{
annotations = (
{
pos = (4637.774,3802.323);
type = Text;
}
);
layerId = m01;
shapes = (
{
attr = {
strokePos = "0";
};
closed = 1;
nodes = (
(450,200,l),
(662,200,o),
(750,287,o),
(750,449,c),
(750,450,l),
(750,612,o),
(662,700,o),
(450,700,c),
(95,700,l),
(58,700,o),
(45,688,o),
(45,650,c),
(45,613,o),
(58,600,o),
(95,600,c),
(450,600,l),
(599,600,o),
(650,561,o),
(650,450,c),
(650,449,l),
(650,339,o),
(599,300,o),
(450,300,c),
(300,300,l),
(263,300,o),
(250,288,o),
(250,250,c),
(250,213,o),
(263,200,o),
(300,200,c)
);
},
{
attr = {
strokePos = "1";
};
closed = 1;
nodes = (
(705,0,l),
(743,0,o),
(755,13,o),
(755,50,c),
(755,88,o),
(743,100,o),
(705,100,c),
(95,100,l),
(58,100,o),
(45,88,o),
(45,50,c),
(45,13,o),
(58,0,o),
(95,0,c)
);
}
);
width = 800;
}
);
unicode = 50;
},
{
glyphname = three;
lastChange = "2025-07-05 19:01:05 +0000";
layers = (
{
annotations = (
{
pos = (2045,-570);
type = Text;
}
);
layerId = m01;
shapes = (
{
attr = {
strokePos = 0;
};
closed = 1;
nodes = (
(455,0,l),
(667,0,o),
(755,87,o),
(755,249,c),
(755,250,l),
(755,412,o),
(667,500,o),
(455,500,c),
(305,500,l),
(268,500,o),
(255,488,o),
(255,450,c),
(255,413,o),
(268,400,o),
(305,400,c),
(455,400,l),
(604,400,o),
(655,361,o),
(655,250,c),
(655,249,l),
(655,139,o),
(604,100,o),
(455,100,c),
(100,100,l),
(63,100,o),
(50,88,o),
(50,50,c),
(50,13,o),
(63,0,o),
(100,0,c)
);
},
{
attr = {
strokePos = 0;
};
closed = 1;
nodes = (
(657,500,l),
(657,630,o),
(587,700,o),
(457,700,c),
(100,700,l),
(63,700,o),
(50,688,o),
(50,650,c),
(50,613,o),
(63,600,o),
(100,600,c),
(457,600,l),
(531,600,o),
(557,574,o),
(557,500,c),
(557,445,l),
(557,417,o),
(579,395,o),
(607,395,c),
(635,395,o),
(657,417,o),
(657,445,c)
);
}
);
width = 805;
}
);
unicode = 51;
},
{
glyphname = four;
lastChange = "2025-07-05 19:01:08 +0000";
layers = (
{
layerId = m01;
shapes = (
{
attr = {
strokePos = "0";
};
closed = 1;
nodes = (
(50,500,l),
(50,305,o),
(155,200,o),
(350,200,c),
(750,200,l),
(750,655,l),
(750,693,o),
(738,705,o),
(700,705,c),
(663,705,o),
(650,693,o),
(650,655,c),
(650,300,l),
(350,300,l),
(211,300,o),
(150,361,o),
(150,500,c),
(150,655,l),
(150,693,o),
(138,705,o),
(100,705,c),
(63,705,o),
(50,693,o),
(50,655,c)
);
},
{
attr = {
strokePos = "1";
};
closed = 1;
nodes = (
(750,655,l),
(750,693,o),
(738,705,o),
(700,705,c),
(663,705,o),
(650,693,o),
(650,655,c),
(650,45,l),
(650,8,o),
(663,-5,o),
(700,-5,c),
(738,-5,o),
(750,8,o),
(750,45,c)
);
}
);
width = 800;
}
);
unicode = 52;
},
{
glyphname = five;
lastChange = "2025-07-05 19:01:23 +0000";
layers = (
{
layerId = m01;
shapes = (
{
attr = {
lineCapEnd = "2";
lineCapStart = "2";
strokePos = "0";
strokeWidth = 100;
};
closed = 0;
nodes = (
(255,500,ls),
(450,500,ls),
(662,500,o),
(750,412,o),
(750,250,cs),
(750,249,ls),
(750,87,o),
(662,0,o),
(450,0,cs),
(50,0,l)
);
},
{
attr = {
lineCapEnd = "2";
lineCapStart = "2";
strokePos = "1";
strokeWidth = 100;
};
closed = 0;
nodes = (
(750,700,l),
(250,700,ls),
(120,700,o),
(50,630,o),
(50,500,cs),
(50,400,l)
);
}
);
width = 800;
}
);
unicode = 53;
},
{
glyphname = six;
lastChange = "2025-07-05 19:01:26 +0000";
layers = (
{
layerId = m01;
shapes = (
{
attr = {
strokePos = "1";
};
closed = 1;
nodes = (
(550,300,l),
(625,300,o),
(650,275,o),
(650,201,c),
(650,200,l),
(650,126,o),
(624,100,o),
(550,100,c),
(350,100,l),
(211,100,o),
(150,161,o),
(150,300,c),
(150,400,l),
(150,539,o),
(211,600,o),
(350,600,c),
(655,600,l),
(693,600,o),
(705,613,o),
(705,650,c),
(705,688,o),
(693,700,o),
(655,700,c),
(350,700,l),
(155,700,o),
(50,595,o),
(50,400,c),
(50,300,l),
(50,105,o),
(155,0,o),
(350,0,c),
(550,0,l),
(680,0,o),
(750,70,o),
(750,200,c),
(750,201,l),
(750,331,o),
(680,400,o),
(550,400,c),
(50,400,l),
(50,300,l)
);
}
);
width = 800;
}
);
unicode = 54;
},
{
glyphname = seven;
lastChange = "2025-07-05 19:01:31 +0000";
layers = (
{
layerId = m01;
shapes = (
{
attr = {
lineCapEnd = "2";
lineCapStart = "2";
strokePos = "1";
strokeWidth = 100;
};
closed = 0;
nodes = (
(750,0,l),
(750,400,ls),
(750,595,o),
(645,700,o),
(450,700,cs),
(50,700,l)
);
}
);
width = 800;
}
);
unicode = 55;
},
{
glyphname = eight;
lastChange = "2025-07-05 19:01:36 +0000";
layers = (
{
layerId = m01;
shapes = (
{
attr = {
strokePos = "0";
strokeWidth = 100;
};
closed = 1;
nodes = (
(40,208,ls),
(40,340,o),
(145,400,o),
(340,400,cs),
(460,400,ls),
(655,400,o),
(760,340,o),
(760,208,cs),
(760,202,ls),
(760,70,o),
(655,0,o),
(460,0,cs),
(340,0,ls),
(145,0,o),
(40,70,o),
(40,202,cs)
);
},
{
attr = {
strokePos = "0";
strokeWidth = 100;
};
closed = 1;
nodes = (
(65,498,ls),
(65,630,o),
(170,700,o),
(365,700,cs),
(435,700,ls),
(630,700,o),
(735,630,o),
(735,498,cs),
(735,492,ls),
(735,360,o),
(630,300,o),
(435,300,cs),
(365,300,ls),
(170,300,o),
(65,360,o),
(65,492,cs)
);
}
);
width = 800;
}
);
unicode = 56;
},
{
glyphname = nine;
lastChange = "2025-07-05 19:01:46 +0000";
layers = (
{
layerId = m01;
shapes = (
{
attr = {
lineCapStart = "2";
strokePos = "1";
strokeWidth = 100;
};
closed = 0;
nodes = (
(100,0,l),
(450,0,ls),
(645,0,o),
(750,105,o),
(750,300,cs),
(750,400,ls),
(750,595,o),
(645,700,o),
(450,700,cs),
(250,700,ls),
(120,700,o),
(50,630,o),
(50,500,cs),
(50,499,ls),
(50,369,o),
(120,300,o),
(250,300,cs),
(750,300,l)
);
}
);
width = 800;
}
);
unicode = 57;
},
{
glyphname = period;
lastChange = "2025-07-06 03:05:09 +0000";
layers = (
{
layerId = m01;
shapes = (
{
attr = {
strokePos = "1";
};
closed = 1;
nodes = (
(108,-25,l),
(164,-25,o),
(183,-6,o),
(183,50,c),
(183,106,o),
(164,125,o),
(108,125,c),
(93,125,l),
(37,125,o),
(18,106,o),
(18,50,c),
(18,-6,o),
(37,-25,o),
(93,-25,c)
);
}
);
width = 200;
}
);
unicode = 46;
},
{
glyphname = comma;
lastChange = "2025-07-06 03:05:00 +0000";
layers = (
{
layerId = m01;
shapes = (
{
attr = {
strokePos = 1;
};
closed = 1;
nodes = (
(145,-23,l),
(163,15,o),
(170,50,o),
(170,83,c),
(170,105,l),
(170,143,o),
(158,155,o),
(120,155,c),
(83,155,o),
(70,143,o),
(70,105,c),
(70,83,l),
(70,60,o),
(65,42,o),
(55,21,c),
(40,-9,l),
(11,-64,o),
(22,-82,o),
(85,-82,c),
(104,-82,o),
(120,-72,o),
(129,-55,c)
);
}
);
width = 220;
}
);
unicode = 44;
},
{
glyphname = exclam;
lastChange = "2025-07-06 07:35:20 +0000";
layers = (
{
layerId = m01;
shapes = (
{
attr = {
strokePos = "1";
};
closed = 1;
nodes = (
(115,0,l),
(153,0,o),
(165,13,o),
(165,50,c),
(165,88,o),
(153,100,o),
(115,100,c),
(105,100,l),
(68,100,o),
(55,88,o),
(55,50,c),
(55,13,o),
(68,0,o),
(105,0,c)
);
},
{
attr = {
fill = 1;
strokePos = "1";
};
closed = 1;
nodes = (
(161,654,l),
(161,692,o),
(149,705,o),
(111,705,c),
(74,705,o),
(61,692,o),
(61,655,c),
(61,194,l),
(61,157,o),
(74,144,o),
(111,144,c),
(149,144,o),
(161,157,o),
(161,195,cs)
);
}
);
width = 220;
}
);
unicode = 33;
},
{
glyphname = question;
lastChange = "2025-07-06 03:00:18 +0000";
layers = (
{
layerId = m01;
shapes = (
{
attr = {
strokePos = 1;
};
closed = 1;
nodes = (
(159,565,o),
(221,600,o),
(343,600,c),
(443,600,l),
(592,600,o),
(643,561,o),
(643,450,c),
(643,449,l),
(643,364,o),
(622,351,o),
(448,350,c),
(369,350,o),
(343,324,o),
(343,244,c),
(344,194,l),
(344,157,o),
(357,144,o),
(394,144,c),
(432,144,o),
(444,157,o),
(444,195,c),
(443,245,l),
(443,249,o),
(445,250,o),
(448,250,c),
(656,251,o),
(743,288,o),
(743,449,c),
(743,450,l),
(743,612,o),
(655,700,o),
(443,700,c),
(343,700,l),
(170,700,o),
(68,633,o),
(47,503,c),
(40,460,o),
(52,445,o),
(96,445,c),
(128,445,o),
(141,456,o),
(146,487,c)
);
},
{
attr = {
strokePos = 1;
};
closed = 1;
nodes = (
(398,0,l),
(436,0,o),
(448,13,o),
(448,50,c),
(448,88,o),
(436,100,o),
(398,100,c),
(388,100,l),
(351,100,o),
(338,88,o),
(338,50,c),
(338,13,o),
(351,0,o),
(388,0,c)
);
}
);
width = 788;
}
);
unicode = 63;
},
{
glyphname = numbersign;
lastChange = "2025-07-06 03:00:13 +0000";
layers = (
{
layerId = m01;
shapes = (
{
closed = 1;
nodes = (
(360,646,l),
(369,690,o),
(356,705,o),
(311,705,c),
(280,705,o),
(267,695,o),
(262,664,c),
(130,54,l),
(121,10,o),
(134,-5,o),
(179,-5,c),
(210,-5,o),
(223,5,o),
(228,36,c)
);
},
{
closed = 1;
nodes = (
(650,646,l),
(659,690,o),
(646,705,o),
(601,705,c),
(570,705,o),
(557,695,o),
(552,664,c),
(420,54,l),
(411,10,o),
(424,-5,o),
(469,-5,c),
(500,-5,o),
(513,5,o),
(518,36,c)
);
},
{
closed = 1;
nodes = (
(720,500,l),
(758,500,o),
(770,513,o),
(770,550,c),
(770,588,o),
(758,600,o),
(720,600,c),
(130,600,l),
(93,600,o),
(80,588,o),
(80,550,c),
(80,513,o),
(93,500,o),
(130,500,c)
);
},
{
closed = 1;
nodes = (
(670,150,l),
(708,150,o),
(720,163,o),
(720,200,c),
(720,238,o),
(708,250,o),
(670,250,c),
(80,250,l),
(43,250,o),
(30,238,o),
(30,200,c),
(30,163,o),
(43,150,o),
(80,150,c)
);
}
);
width = 800;
}
);
unicode = 35;
},
{
glyphname = slash;
lastChange = "2025-07-06 03:00:07 +0000";
layers = (
{
layerId = m01;
shapes = (
{
closed = 1;
nodes = (
(448,647,l),
(474,702,o),
(463,720,o),
(403,720,c),
(381,720,o),
(370,713,o),
(359,692,c),
(48,53,l),
(22,-2,o),
(33,-20,o),
(93,-20,c),
(116,-20,o),
(127,-13,o),
(137,8,c)
);
}
);
width = 496;
}
);
unicode = 47;
},
{
glyphname = slash.ss01;
lastChange = "2025-07-06 02:59:52 +0000";
layers = (
{
layerId = m01;
shapes = (
{
closed = 1;
nodes = (
(257,0,l),
(316,0,o),
(342,19,o),
(361,75,c),
(533,593,l),
(535,599,o),
(536,600,o),
(543,600,c),
(700,600,l),
(738,600,o),
(750,613,o),
(750,650,c),
(750,688,o),
(738,700,o),
(700,700,c),
(543,700,l),
(484,700,o),
(458,681,o),
(439,625,c),
(267,107,l),
(265,101,o),
(264,100,o),
(257,100,c),
(95,100,l),
(58,100,o),
(45,88,o),
(45,50,c),
(45,13,o),
(58,0,o),
(95,0,c)
);
}
);
width = 795;
}
);
},
{
glyphname = hyphen;
lastChange = "2025-07-06 02:59:45 +0000";
layers = (
{
layerId = m01;
shapes = (
{
closed = 1;
nodes = (
(405,300,l),
(443,300,o),
(455,313,o),
(455,350,c),
(455,388,o),
(443,400,o),
(405,400,c),
(95,400,l),
(58,400,o),
(45,388,o),
(45,350,c),
(45,313,o),
(58,300,o),
(95,300,c)
);
}
);
width = 500;
}
);
unicode = 45;
},
{
glyphname = apple;
lastChange = "2025-07-03 20:34:31 +0000";
layers = (
{
layerId = m01;
shapes = (
{
attr = {
fill = "1";
strokePos = "0";
strokeWidth = 10;
};
closed = 1;
nodes = (
(1686,1132,o),
(1672,1130,o),
(1663,1117,c),
(1654,1108,l),
(1654,1108,o),
(1314,774,o),
(975,440,c),
(837,646,o),
(716,826,o),
(682,879,c),
(674,889,o),
(661,899,o),
(643,893,c),
(630,889,o),
(622,887,o),
(610,879,c),
(596,874,o),
(589,861,o),
(591,848,c),
(591,841,o),
(591,841,o),
(591,841,c),
(603,693,o),
(598,534,o),
(576,387,c),
(102,390,l),
(78,390,o),
(64,379,o),
(62,355,c),
(59,348,o),
(59,353,o),
(62,346,c),
(64,318,o),
(80,310,o),
(102,310,c),
(102,310,o),
(577,306,o),
(563,310,c),
(535,182,o),
(496,65,o),
(438,-52,c),
(423,-81,o),
(403,-110,o),
(382,-141,c),
(372,-155,o),
(372,-170,o),
(384,-182,c),
(391,-190,o),
(403,-200,o),
(410,-205,c),
(426,-210,o),
(450,-206,o),
(458,-197,c),
(515,-139,o),
(714,54,o),
(901,238,c),
(1344,-266,l),
(1352,-278,o),
(1374,-291,o),
(1391,-282,c),
(1405,-276,o),
(1413,-270,o),
(1419,-260,c),
(1429,-244,o),
(1425,-229,o),
(1416,-215,c),
(1372,-148,o),
(1211,74,o),
(1049,311,c),
(1074,311,o),
(1167,311,o),
(1211,311,c),
(1229,311,o),
(1237,330,o),
(1238,349,c),
(1239,355,o),
(1239,366,o),
(1238,374,c),
(1237,391,o),
(1233,401,o),
(1213,406,c),
(1069,414,l),
(1387,728,o),
(1712,1047,o),
(1712,1047,c),
(1723,1055,l),
(1731,1067,o),
(1735,1082,o),
(1726,1098,c),
(1723,1105,o),
(1709,1117,o),
(1703,1120,c),
(1703,1120,l)
);
},
{
attr = {
fill = "1";
strokePos = "0";
strokeWidth = 10;
};
closed = 1;
nodes = (
(865,455,l),
(837,459,l),
(824,461,o),
(815,457,o),
(809,444,c),
(783,390,l),
(650,390,l),
(670,495,o),
(682,616,o),
(684,724,c),
(684,724,l)
);
},
{
attr = {
fill = "1";
strokePos = "0";
strokeWidth = 10;
};
closed = 1;
nodes = (
(570,100,o),
(607,201,o),
(633,310,c),
(724,310,o),
(777,310,o),
(847,310,c),
(847,310,l),
(697,162,o),
(596,66,o),
(528,-1,c),
(528,-1,l)
);
},
{
attr = {
fill = "1";
strokePos = "0";
strokeWidth = 10;
};
closed = 1;
nodes = (
(1466,314,l),
(1484,314,o),
(1493,326,o),
(1496,346,c),
(1496,352,o),
(1496,364,o),
(1496,370,c),
(1495,394,o),
(1482,401,o),
(1466,401,c),
(1379,401,l),
(1357,401,o),
(1348,391,o),
(1346,370,c),
(1346,364,o),
(1346,352,o),
(1346,346,c),
(1348,323,o),
(1357,314,o),
(1379,314,c)
);
}
);
width = 1591;
}
);
unicode = 63743;
},
{
glyphname = at;
lastChange = "2025-07-06 03:00:37 +0000";
layers = (
{
layerId = m01;
shapes = (
{
attr = {
strokePos = "0";
};
closed = 1;
nodes = (
(600,170,l),
(730,170,o),
(800,239,o),
(800,399,c),
(800,400,l),
(800,595,o),
(695,700,o),
(500,700,c),
(400,700,l),
(205,700,o),
(100,595,o),
(100,400,c),
(100,300,l),
(100,105,o),
(205,0,o),
(400,0,c),
(757,0,l),
(793,0,o),
(805,12,o),
(805,48,c),
(805,84,o),
(793,96,o),
(757,96,c),
(400,96,l),
(258,96,o),
(196,158,o),
(196,300,c),
(196,400,l),
(196,542,o),
(258,604,o),
(400,604,c),
(500,604,l),
(642,604,o),
(704,542,o),
(704,400,c),
(704,399,l),
(704,293,o),
(677,266,o),
(600,266,c),
(518,266,l),
(546,222,l),
(537,229,o),
(526,232,o),
(515,232,c),
(481,232,o),
(458,201,o),
(465,170,c)
);
},
{
attr = {
strokePos = "0";
};
closed = 1;
nodes = (
(300,214,o),
(344,170,o),
(445,170,c),
(455,170,l),
(556,170,o),
(600,214,o),
(600,315,c),
(600,375,l),
(600,476,o),
(556,520,o),
(455,520,c),
(445,520,l),
(344,520,o),
(300,476,o),
(300,375,c),
(300,315,l)
);
},
{
attr = {
strokePos = "0";
};
closed = 1;
nodes = (
(380,375,l),
(380,431,o),
(389,440,o),
(445,440,c),
(455,440,l),
(511,440,o),
(520,431,o),
(520,375,c),
(520,315,l),
(520,259,o),
(511,250,o),
(455,250,c),
(445,250,l),
(389,250,o),
(380,259,o),
(380,315,c)
);
}
);
width = 900;
}
);
unicode = 64;
},
{
glyphname = ampersand;
lastChange = "2025-07-06 03:00:50 +0000";
layers = (
{
layerId = m01;
shapes = (
{
attr = {
strokePos = 1;
};
closed = 1;
nodes = (
(600,50,l),
(600,59,o),
(641,100,o),
(650,100,c),
(395,100,l),
(246,100,o),
(195,139,o),
(195,249,c),
(195,250,l),
(195,361,o),
(246,400,o),
(395,400,c),
(805,400,l),
(843,400,o),
(855,413,o),
(855,450,c),
(855,488,o),
(843,500,o),
(805,500,c),
(395,500,l),
(183,500,o),
(95,412,o),
(95,250,c),
(95,249,l),
(95,87,o),
(183,0,o),
(395,0,c),
(650,0,l),
(688,0,o),
(700,13,o),
(700,50,c),
(700,405,l),
(700,433,o),
(678,455,o),
(650,455,c),
(622,455,o),
(600,433,o),
(600,405,c)
);
},
{
attr = {
strokePos = 1;
};
closed = 1;
nodes = (
(260,500,l),
(260,574,o),
(286,600,o),
(360,600,c),
(555,600,l),
(593,600,o),
(605,613,o),
(605,650,c),
(605,688,o),
(593,700,o),
(555,700,c),
(360,700,l),
(230,700,o),
(160,630,o),
(160,500,c),
(160,445,l),
(160,417,o),
(182,395,o),
(210,395,c),
(238,395,o),
(260,417,o),
(260,445,c)
);
}
);
width = 900;
}
);
unicode = 38;
},
